<?xml version="1.0" encoding="UTF-8"?>
<svg id="Layer_1" data-name="Layer 1" xmlns="http://www.w3.org/2000/svg" viewBox="0 0 1080 1080">
  <defs>
    <style>
      .cls-1 {
        fill: #1469e2;
      }
    </style>
  </defs>
  <path class="cls-1" d="M951.44,429.75c-8.67-32.37-77.46-44.88-177.65-38.03-5.45.42-11.05.84-16.64,1.33-60.89-89.98-174.15-135.91-284.97-106.2-110.81,29.64-185.97,126.12-193.66,234.42-5.17,2.45-10.21,4.82-15.1,7.27-90.19,44.12-143.53,89.35-134.86,121.65,8.67,32.44,77.6,44.88,178,37.96,5.38-.35,10.77-.77,16.29-1.26,60.82,89.98,174.15,135.98,285.04,106.27,110.81-29.71,185.9-126.12,193.66-234.56,4.96-2.31,9.93-4.68,14.68-6.99,90.4-44.19,143.88-89.49,135.21-121.86ZM198.55,631.45c-6.36-23.7,24.33-55.02,79.35-86.69.21,11.96,1.26,23.98,3.22,36.07.91,6.01,2.1,12.1,3.5,18.11.7,2.94,1.4,5.94,2.24,8.88.77,3.01,1.61,5.94,2.52,8.88,1.82,5.87,3.78,11.68,6.01,17.41,4.33,11.4,9.44,22.37,15.24,32.79-63.48.07-105.71-11.75-112.07-35.45ZM601.8,770.58c-96.62,25.87-195.2-11.33-252.11-86.34,26.92-3.08,55.51-7.27,85.29-12.65,40.34,32.09,94.94,45.37,148.57,30.97,53.69-14.33,94.31-53.13,113.12-101.09,28.59-10.28,55.44-20.9,80.26-31.74-11.75,93.47-78.58,174.99-175.13,200.86ZM778.61,547.97c-21.95,11.4-46.91,22.65-74.11,33.56-.49.21-1.05.42-1.54.63-9.51,3.78-19.3,7.48-29.36,11.19-34.05,12.44-71.03,24.19-110.04,34.61-38.94,10.42-76.9,18.81-112.63,25.03-10.49,1.89-20.83,3.5-30.97,4.96-.56.14-1.12.21-1.61.28-29.08,4.2-56.28,6.85-81.03,8.04-7.41-12.03-13.91-24.75-19.23-38.24-2.24-5.66-4.26-11.47-6.15-17.41-.84-2.94-1.75-5.87-2.52-8.81-.77-3.01-1.54-5.94-2.24-8.95-1.33-6.01-2.45-12.1-3.36-18.11-2.17-14.33-2.94-28.66-2.45-42.79.14-4.68.42-9.3.84-13.84.28-2.66.56-5.31.91-7.9,11.75-93.4,78.51-174.92,175.06-200.79,96.55-25.87,195.2,11.33,252.11,86.27,1.54,2.17,3.15,4.26,4.68,6.43,2.66,3.78,5.17,7.62,7.62,11.54,7.48,12.02,13.98,24.82,19.3,38.31,2.24,5.66,4.33,11.47,6.15,17.41.91,2.94,1.75,5.87,2.52,8.81.84,3.01,1.54,5.94,2.24,8.95,1.33,6.01,2.52,12.09,3.36,18.11,2.17,14.33,2.94,28.59,2.45,42.72ZM802.1,535.18c-.21-11.96-1.26-23.98-3.15-36.01-.98-6.01-2.17-12.09-3.57-18.11-.7-2.94-1.4-5.94-2.24-8.88-.77-3.01-1.61-5.94-2.52-8.88-1.82-5.87-3.78-11.68-5.94-17.41-4.4-11.4-9.51-22.37-15.31-32.86,63.48-.07,105.71,11.75,112.07,35.45,6.36,23.7-24.33,55.02-79.35,86.69Z"/>
  <path class="cls-1" d="M516.43,451.98c38.96-10.44,76.85-18.79,112.56-25.04,10.54-1.85,20.89-3.51,31.02-4.98-4.76-4.84-9.8-9.37-15.08-13.57-40.34-32.11-94.85-45.33-148.48-30.96-53.62,14.37-94.23,53.07-113.11,101.05-2.47,6.28-4.57,12.73-6.28,19.29,9.51-3.79,19.3-7.52,29.35-11.2,34.05-12.45,71.04-24.16,110.01-34.6Z"/>
  <path class="cls-1" d="M702.58,496.45c-.8-2.98-1.67-5.91-2.62-8.81-1.93-5.92-4.17-11.67-6.69-17.23l-320.79,85.95c.6,6.07,1.54,12.17,2.82,18.27.63,2.98,1.34,5.96,2.14,8.94.8,2.98,1.67,5.91,2.62,8.8,1.93,5.92,4.17,11.67,6.69,17.23l320.79-85.95c-.6-6.07-1.54-12.17-2.82-18.27-.63-2.98-1.34-5.96-2.14-8.93Z"/>
</svg>