<?xml version="1.0" encoding="UTF-8"?>
<svg id="Layer_1" data-name="Layer 1" xmlns="http://www.w3.org/2000/svg" viewBox="0 0 1575 725">
  <defs>
    <style>
      .cls-1 {
        fill: #0d3375;
      }

      .cls-2 {
        fill: #1469e2;
      }
    </style>
  </defs>
  <g>
    <path class="cls-2" d="M695.6,295.77c-5.25-19.59-46.89-27.17-107.53-23.02-3.3.25-6.69.51-10.07.8-36.86-54.46-105.41-82.26-172.48-64.28-67.07,17.94-112.56,76.34-117.22,141.89-3.13,1.48-6.18,2.92-9.14,4.4-54.59,26.7-86.88,54.08-81.63,73.63,5.25,19.63,46.97,27.17,107.74,22.98,3.26-.21,6.52-.47,9.86-.76,36.82,54.46,105.41,82.31,172.53,64.32,67.07-17.98,112.52-76.34,117.22-141.97,3-1.4,6.01-2.84,8.89-4.23,54.72-26.74,87.09-54.17,81.84-73.76ZM239.89,417.85c-3.85-14.35,14.73-33.3,48.03-52.47.13,7.24.76,14.51,1.95,21.84.55,3.64,1.27,7.32,2.12,10.96.42,1.78.85,3.6,1.35,5.37.47,1.82.97,3.6,1.52,5.37,1.1,3.55,2.29,7.07,3.64,10.54,2.62,6.9,5.71,13.54,9.23,19.85-38.42.04-63.98-7.11-67.83-21.45ZM483.98,502.06c-58.48,15.66-118.15-6.86-152.6-52.26,16.29-1.86,33.6-4.4,51.63-7.66,24.42,19.42,57.47,27.46,89.92,18.75,32.5-8.67,57.09-32.16,68.47-61.19,17.31-6.22,33.56-12.65,48.58-19.21-7.11,56.58-47.56,105.92-106,121.58ZM591,367.33c-13.29,6.9-28.39,13.71-44.86,20.31-.3.13-.63.25-.93.38-5.76,2.29-11.68,4.53-17.77,6.77-20.61,7.53-42.99,14.64-66.61,20.95-23.57,6.31-46.55,11.38-68.17,15.15-6.35,1.14-12.61,2.12-18.75,3-.34.08-.68.13-.97.17-17.6,2.54-34.07,4.15-49.05,4.87-4.49-7.28-8.42-14.98-11.64-23.15-1.35-3.43-2.58-6.94-3.72-10.54-.51-1.78-1.06-3.55-1.52-5.33-.47-1.82-.93-3.6-1.35-5.42-.8-3.64-1.48-7.32-2.03-10.96-1.31-8.67-1.78-17.35-1.48-25.9.08-2.84.25-5.63.51-8.38.17-1.61.34-3.22.55-4.78,7.11-56.54,47.52-105.88,105.96-121.53,58.44-15.66,118.15,6.86,152.6,52.22.93,1.31,1.9,2.58,2.84,3.89,1.61,2.29,3.13,4.61,4.61,6.98,4.53,7.28,8.46,15.02,11.68,23.19,1.35,3.43,2.62,6.94,3.72,10.54.55,1.78,1.06,3.55,1.52,5.33.51,1.82.93,3.6,1.35,5.42.8,3.64,1.52,7.32,2.03,10.96,1.31,8.67,1.78,17.31,1.48,25.86ZM605.21,359.58c-.13-7.24-.76-14.51-1.9-21.79-.59-3.64-1.31-7.32-2.16-10.96-.42-1.78-.85-3.6-1.35-5.37-.47-1.82-.97-3.6-1.52-5.37-1.1-3.55-2.29-7.07-3.6-10.54-2.67-6.9-5.76-13.54-9.27-19.89,38.42-.04,63.98,7.11,67.83,21.45,3.85,14.35-14.73,33.3-48.03,52.47Z"/>
    <path class="cls-2" d="M432.3,309.23c23.58-6.32,46.52-11.37,68.13-15.15,6.38-1.12,12.64-2.12,18.78-3.01-2.88-2.93-5.93-5.67-9.13-8.21-24.42-19.43-57.41-27.44-89.87-18.74-32.46,8.7-57.03,32.13-68.46,61.16-1.5,3.8-2.77,7.7-3.8,11.68,5.76-2.29,11.68-4.55,17.77-6.78,20.61-7.54,43-14.62,66.59-20.94Z"/>
    <path class="cls-2" d="M544.97,336.14c-.48-1.8-1.01-3.58-1.59-5.33-1.17-3.58-2.52-7.07-4.05-10.43l-194.17,52.03c.36,3.68.93,7.37,1.71,11.06.38,1.8.81,3.61,1.29,5.41.48,1.8,1.01,3.58,1.58,5.33,1.17,3.58,2.52,7.07,4.05,10.43l194.17-52.03c-.36-3.68-.93-7.37-1.71-11.06-.38-1.8-.81-3.61-1.29-5.41Z"/>
  </g>
  <g>
    <path class="cls-1" d="M842.68,292.27v52.18h79.78v35.09h-79.78v52.18h94.47v35.09h-134.66v-209.64h134.66v35.09h-94.47Z"/>
    <path class="cls-1" d="M1125.8,466.81h-48.59l-55.48-82.77c-2.1-3-3.3-6.6-3.3-9.9,0-8.7,6.3-16.19,14.4-17.69,25.49-5.1,38.39-22.79,38.39-38.09,0-14.1-8.7-26.09-25.49-26.09h-39.89v174.55h-40.19v-209.64h83.07c78.88.3,83.67,103.77,17.1,120.26l59.98,89.37Z"/>
    <path class="cls-1" d="M1147.99,466.81v-209.64h40.19v209.64h-40.19Z"/>
    <path class="cls-1" d="M1378.02,405.93c0,39.29-38.69,62.08-78.88,62.08-37.79,0-76.78-20.39-84.87-65.68h42.59c3.6,23.39,24.89,35.09,44.39,35.09s36.29-10.5,36.29-31.49c0-40.19-116.36-14.7-116.36-88.77,0-38.69,35.99-60.88,73.18-60.88,35.09,0,70.78,19.49,78.88,63.58h-42.89c-3.3-21.59-21.59-32.69-38.69-32.69-15.6,0-29.99,9.3-29.99,28.19,0,42.89,116.36,19.79,116.36,90.57Z"/>
  </g>
</svg>