<svg version="1.2" xmlns="http://www.w3.org/2000/svg" viewBox="0 0 1655 777" width="1655" height="777">
	<style>
		.s0 { fill: #1469e2 } 
		.s1 { fill: #fcfaef } 
	</style>
	<g>
		<path class="s0" d="m777.87 311.96c-6.02-22.47-53.78-31.16-123.33-26.4-3.79 0.29-7.67 0.58-11.55 0.92-42.27-62.47-120.9-94.35-197.83-73.73-76.93 20.58-129.11 87.56-134.44 162.74-3.59 1.7-7.09 3.35-10.48 5.05-62.61 30.63-99.64 62.03-93.63 84.45 6.02 22.52 53.87 31.16 123.57 26.35 3.74-0.24 7.47-0.53 11.31-0.87 42.23 62.47 120.9 94.4 197.88 73.77 76.93-20.63 129.06-87.56 134.44-162.84 3.45-1.6 6.89-3.25 10.19-4.85 62.76-30.67 99.89-62.13 93.87-84.6zm-522.68 140.03c-4.42-16.45 16.89-38.2 55.09-60.18 0.15 8.3 0.87 16.65 2.23 25.04 0.63 4.17 1.46 8.4 2.43 12.57 0.49 2.04 0.97 4.13 1.55 6.16q0.8 3.13 1.75 6.16c1.26 4.08 2.62 8.11 4.17 12.09 3.01 7.91 6.55 15.53 10.58 22.76-44.07 0.05-73.39-8.15-77.8-24.6zm279.96 96.58c-67.08 17.96-135.51-7.86-175.02-59.94 18.69-2.14 38.54-5.05 59.21-8.78 28.01 22.28 65.91 31.5 103.14 21.5 37.28-9.95 65.47-36.89 78.53-70.18 19.85-7.13 38.49-14.51 55.72-22.04-8.15 64.89-54.55 121.49-121.58 139.44zm122.74-154.53c-15.24 7.91-32.57 15.73-51.45 23.3-0.34 0.15-0.73 0.29-1.07 0.44q-9.9 3.92-20.39 7.77c-23.64 8.64-49.31 16.79-76.4 24.03-27.03 7.23-53.39 13.06-78.19 17.38-7.28 1.31-14.46 2.43-21.5 3.45-0.39 0.1-0.78 0.15-1.12 0.19-20.19 2.91-39.07 4.76-56.25 5.58-5.14-8.35-9.66-17.18-13.35-26.55q-2.32-5.9-4.27-12.09c-0.58-2.04-1.21-4.08-1.75-6.12-0.53-2.09-1.07-4.13-1.55-6.21-0.92-4.17-1.7-8.4-2.33-12.57-1.5-9.95-2.04-19.9-1.7-29.7q0.15-4.88 0.58-9.61c0.19-1.84 0.39-3.69 0.63-5.48 8.15-64.84 54.51-121.44 121.53-139.4 67.03-17.96 135.51 7.86 175.02 59.89 1.07 1.5 2.18 2.96 3.25 4.47q2.75 3.93 5.29 8.01c5.19 8.35 9.71 17.23 13.4 26.6 1.55 3.93 3.01 7.96 4.27 12.09q0.94 3.06 1.75 6.12c0.58 2.09 1.07 4.13 1.55 6.21 0.92 4.17 1.75 8.4 2.33 12.57 1.5 9.95 2.04 19.85 1.7 29.66zm16.31-8.89q-0.22-12.46-2.18-25c-0.68-4.17-1.5-8.4-2.48-12.57-0.49-2.04-0.97-4.13-1.55-6.16q-0.8-3.13-1.75-6.16-1.88-6.12-4.13-12.09-4.59-11.88-10.63-22.81c44.07-0.05 73.39 8.15 77.8 24.61 4.42 16.45-16.89 38.2-55.08 60.18z"/>
		<path class="s0" d="m475.87 327.4c27.05-7.25 53.35-13.05 78.15-17.38q10.97-1.92 21.53-3.46-4.96-5.04-10.47-9.42c-28.01-22.29-65.85-31.47-103.08-21.49-37.23 9.97-65.41 36.85-78.52 70.15q-2.58 6.55-4.36 13.39 9.9-3.95 20.38-7.77c23.64-8.64 49.32-16.77 76.37-24.02z"/>
		<path class="s0" d="m605.1 358.26q-0.83-3.11-1.82-6.12-2.01-6.17-4.64-11.96l-222.7 59.67q0.62 6.33 1.96 12.68 0.66 3.11 1.48 6.21 0.83 3.1 1.82 6.11 2.01 6.17 4.64 11.96l222.7-59.67q-0.62-6.33-1.96-12.68-0.66-3.11-1.48-6.2z"/>
	</g>
	<g>
		<path class="s1" d="m922.49 293.43v51.32h78.46v34.51h-78.46v51.32h92.91v34.51h-132.43v-206.17h132.43v34.51z"/>
		<path class="s1" d="m1200.92 465.08h-47.78l-54.56-81.4c-2.07-2.95-3.24-6.49-3.24-9.73 0-8.55 6.19-15.93 14.16-17.4 25.07-5.01 37.75-22.42 37.75-37.46 0-13.86-8.55-25.66-25.07-25.66h-39.23v171.66h-39.52v-206.17h81.7c77.57 0.29 82.29 102.05 16.81 118.27l58.99 87.89z"/>
		<path class="s1" d="m1222.75 465.08v-206.17h39.52v206.17z"/>
		<path class="s1" d="m1448.97 405.21c0 38.64-38.05 61.05-77.57 61.05-37.16 0-75.51-20.06-83.47-64.59h41.88c3.54 23.01 24.48 34.51 43.65 34.51 19.17 0 35.69-10.32 35.69-30.97 0-39.52-114.44-14.45-114.44-87.3 0-38.05 35.39-59.87 71.97-59.87 34.51 0 69.61 19.17 77.57 62.53h-42.18c-3.24-21.24-21.24-32.15-38.05-32.15-15.34 0-29.49 9.14-29.49 27.73 0 42.18 114.44 19.47 114.44 89.06z"/>
	</g>
	<g>
		<path class="s1" d="m894.29 564.06l-10.68-39.4h3.77l6.88 26.15q0.47 1.77 0.9 3.6 0.43 1.83 0.83 3.69 0.4 1.87 0.77 3.79h-0.47q0.36-1.93 0.77-3.79 0.4-1.86 0.84-3.69 0.44-1.83 0.91-3.6l6.86-26.15h4.34l6.83 26.15q0.46 1.77 0.91 3.6 0.44 1.83 0.86 3.69 0.42 1.87 0.81 3.79h-0.55q0.39-1.93 0.79-3.79 0.4-1.86 0.86-3.69 0.45-1.83 0.9-3.6l6.86-26.15h3.82l-10.73 39.4h-4.44l-7.04-26.36q-0.64-2.43-1.26-5.16-0.61-2.72-1.18-6.06h0.78q-0.57 3.18-1.16 5.84-0.59 2.67-1.29 5.37l-7.04 26.36h-4.44z"/>
		<path class="s1" d="m947.04 564.69q-4.08 0-7.05-1.94-2.98-1.95-4.6-5.38-1.62-3.44-1.62-7.91 0-4.47 1.6-7.93 1.6-3.47 4.47-5.45 2.86-1.98 6.66-1.98 2.39-0.01 4.6 0.89 2.21 0.88 3.97 2.7 1.76 1.82 2.78 4.59 1.02 2.78 1.01 6.53v1.56h-22.78v-3.09h20.88l-1.61 1.16q0-3.18-1.07-5.69-1.06-2.51-3.04-3.97-1.98-1.45-4.75-1.45-2.76 0-4.82 1.48-2.07 1.48-3.22 3.91-1.16 2.43-1.16 5.34v1.85q0 3.46 1.19 6.07 1.2 2.61 3.39 4.05 2.19 1.44 5.18 1.44 2.02 0 3.57-0.66 1.55-0.66 2.6-1.76 1.06-1.1 1.57-2.39l3.35 1.08q-0.67 1.85-2.17 3.44-1.5 1.59-3.75 2.55-2.27 0.96-5.18 0.96z"/>
		<path class="s1" d="m996.22 564.67q-4.36 0-7.69-1.81-3.33-1.81-5.18-4.98-1.86-3.17-1.86-7.19v-26.02h3.69v25.76q0 3.09 1.38 5.53 1.38 2.43 3.86 3.83 2.48 1.4 5.81 1.4 3.32 0 5.81-1.4 2.48-1.4 3.84-3.83 1.36-2.43 1.36-5.53v-25.76h3.69v26.02q0 4.02-1.86 7.19-1.86 3.17-5.17 4.98-3.31 1.81-7.68 1.81z"/>
		<path class="s1" d="m1023.75 545.63v18.43h-3.53v-29.56h3.4l0.03 6.9h-0.55q1.2-3.86 3.75-5.58 2.56-1.72 5.86-1.72 2.96 0 5.18 1.26 2.22 1.26 3.48 3.66 1.26 2.41 1.26 5.92v19.12h-3.51v-18.85q0-3.62-2-5.73-2-2.1-5.35-2.1-2.28 0-4.1 0.99-1.82 0.99-2.87 2.86-1.05 1.86-1.05 4.4z"/>
		<path class="s1" d="m1053.31 529.03q-1.04 0-1.81-0.74-0.77-0.74-0.77-1.77 0-1.05 0.77-1.78 0.76-0.73 1.81-0.73 1.06 0 1.82 0.73 0.75 0.73 0.75 1.78 0 1.04-0.75 1.77-0.75 0.74-1.82 0.74zm-1.79 35.03v-29.56h3.53v29.56z"/>
		<path class="s1" d="m1073.75 534.5v3.12h-13.82v-3.12zm-9.51-7.04h3.53v29.62q0 2.19 0.96 3.23 0.96 1.03 2.94 0.82 0.36 0 0.9-0.09 0.54-0.09 1-0.2l0.73 3.09q-0.57 0.18-1.26 0.29-0.69 0.1-1.39 0.13-3.48 0.24-5.44-1.68-1.96-1.92-1.96-5.35v-29.85z"/>
		<path class="s1" d="m1091.13 564.69q-4.08 0-7.05-1.94-2.98-1.95-4.6-5.38-1.62-3.44-1.62-7.91 0-4.47 1.6-7.93 1.6-3.47 4.47-5.45 2.87-1.98 6.66-1.98 2.39-0.01 4.6 0.89 2.21 0.88 3.97 2.7 1.76 1.82 2.78 4.59 1.02 2.78 1.01 6.53v1.56h-22.78v-3.09h20.88l-1.61 1.16q0-3.18-1.07-5.69-1.06-2.51-3.04-3.97-1.98-1.45-4.75-1.45-2.76 0-4.82 1.48-2.07 1.48-3.22 3.91-1.16 2.43-1.16 5.34v1.85q0 3.46 1.19 6.07 1.2 2.61 3.39 4.05 2.19 1.44 5.18 1.44 2.03 0 3.57-0.66 1.55-0.66 2.6-1.76 1.06-1.1 1.57-2.39l3.35 1.08q-0.67 1.85-2.17 3.44-1.5 1.59-3.75 2.55-2.27 0.96-5.18 0.96z"/>
		<path class="s1" d="m1123.52 528.02v-3.36h28.21v3.36h-12.23v36.04h-3.69v-36.04z"/>
		<path class="s1" d="m1162.51 545.63v18.43h-3.53v-39.4h3.53v16.74h-0.65q1.2-3.86 3.75-5.58 2.56-1.72 5.86-1.72 2.95 0 5.19 1.26 2.23 1.26 3.49 3.66 1.26 2.41 1.26 5.92v19.12h-3.53v-18.85q0-3.62-2-5.73-2-2.1-5.35-2.1-2.28 0-4.1 0.99-1.82 0.99-2.87 2.86-1.05 1.86-1.05 4.4z"/>
		<path class="s1" d="m1202.07 564.69q-4.08 0-7.05-1.94-2.97-1.94-4.6-5.38-1.62-3.44-1.62-7.91 0-4.47 1.6-7.93 1.6-3.47 4.47-5.45 2.87-1.98 6.66-1.98 2.39-0.01 4.6 0.89 2.21 0.88 3.98 2.7 1.77 1.82 2.78 4.59 1.02 2.78 1.01 6.53v1.56h-22.78v-3.09h20.88l-1.61 1.16q0-3.18-1.07-5.69-1.06-2.51-3.04-3.97-1.98-1.45-4.75-1.45-2.76 0-4.82 1.48-2.07 1.48-3.22 3.91-1.16 2.43-1.16 5.34v1.85q0 3.46 1.2 6.07 1.2 2.61 3.39 4.05 2.19 1.44 5.18 1.44 2.03 0 3.57-0.66 1.55-0.66 2.6-1.76 1.05-1.1 1.57-2.39l3.35 1.08q-0.67 1.85-2.17 3.44-1.5 1.59-3.75 2.55-2.26 0.96-5.19 0.96z"/>
		<path class="s1" d="m1251.24 564.67q-4.36 0-7.69-1.81-3.33-1.81-5.18-4.98-1.86-3.17-1.86-7.19v-26.02h3.69v25.76q0 3.09 1.38 5.53 1.38 2.43 3.86 3.83 2.48 1.4 5.81 1.4 3.33 0 5.81-1.4 2.48-1.4 3.84-3.83 1.36-2.43 1.36-5.53v-25.76h3.69v26.02q0 4.02-1.86 7.19-1.86 3.17-5.17 4.98-3.32 1.81-7.68 1.81z"/>
		<path class="s1" d="m1278.78 545.63v18.43h-3.53v-29.56h3.4l0.03 6.9h-0.54q1.2-3.86 3.75-5.58 2.56-1.72 5.86-1.72 2.96 0 5.18 1.26 2.22 1.26 3.48 3.66 1.26 2.41 1.26 5.92v19.12h-3.51v-18.85q0-3.62-2-5.73-2-2.1-5.35-2.1-2.28 0-4.1 0.99-1.82 0.99-2.87 2.86-1.05 1.87-1.05 4.4z"/>
		<path class="s1" d="m1308.34 529.03q-1.04 0-1.81-0.74-0.77-0.74-0.77-1.77 0-1.05 0.77-1.78 0.76-0.73 1.81-0.73 1.06 0 1.82 0.73 0.75 0.73 0.75 1.78 0 1.04-0.75 1.77-0.75 0.74-1.82 0.74zm-1.8 35.03v-29.56h3.53v29.56z"/>
		<path class="s1" d="m1327.4 564.06l-11.09-29.56h3.84l6.7 18.59q0.91 2.48 1.61 4.97 0.7 2.49 1.48 4.84h-1.25q0.75-2.35 1.46-4.84 0.7-2.48 1.61-4.97l6.7-18.59h3.82l-11.09 29.56z"/>
		<path class="s1" d="m1359.27 564.69q-4.08 0-7.05-1.94-2.97-1.94-4.6-5.38-1.62-3.44-1.62-7.91 0-4.47 1.6-7.93 1.6-3.47 4.47-5.45 2.87-1.98 6.66-1.98 2.39-0.01 4.6 0.89 2.21 0.88 3.98 2.7 1.77 1.82 2.78 4.59 1.02 2.78 1.01 6.53v1.56h-22.78v-3.09h20.88l-1.61 1.16q0-3.18-1.07-5.69-1.06-2.51-3.04-3.97-1.98-1.45-4.75-1.45-2.76 0-4.82 1.48-2.07 1.48-3.22 3.91-1.16 2.43-1.16 5.34v1.85q0 3.46 1.2 6.07 1.2 2.61 3.39 4.05 2.19 1.44 5.18 1.44 2.03 0 3.57-0.66 1.55-0.66 2.6-1.76 1.05-1.1 1.57-2.39l3.35 1.08q-0.67 1.85-2.17 3.44-1.5 1.59-3.75 2.55-2.26 0.96-5.19 0.96z"/>
		<path class="s1" d="m1378.34 564.06v-29.56h3.43v4.6h0.26q0.89-2.28 3.03-3.64 2.14-1.36 4.87-1.36 0.44 0 0.94 0.01 0.49 0 0.86 0.04v3.6q-0.18-0.05-0.78-0.12-0.6-0.07-1.3-0.07-2.23 0-4 0.98-1.77 0.97-2.77 2.67-1 1.69-1 3.89v18.96c0 0-3.53 0-3.54 0z"/>
		<path class="s1" d="m1406.7 564.69q-2.85 0-5.06-0.89-2.2-0.88-3.64-2.59-1.43-1.7-1.95-4.19l3.38-0.82q0.63 2.67 2.48 3.98 1.86 1.31 4.74 1.31 3.3 0 5.29-1.51 1.98-1.51 1.99-3.75 0-1.8-1.18-2.99-1.18-1.19-3.55-1.77l-4.73-1.16q-3.74-0.93-5.6-2.9-1.86-1.97-1.86-4.96 0-2.49 1.31-4.36 1.31-1.88 3.61-2.94 2.3-1.06 5.23-1.06 2.75 0 4.73 0.86 1.98 0.86 3.26 2.42 1.28 1.56 1.94 3.7l-3.22 0.85q-0.67-2.04-2.25-3.37-1.57-1.34-4.43-1.34-2.88 0-4.75 1.4-1.87 1.4-1.87 3.62 0 1.87 1.26 3.07 1.26 1.19 3.93 1.85l4.44 1.08q3.69 0.93 5.52 2.88 1.83 1.96 1.83 4.89 0 2.54-1.38 4.5-1.37 1.95-3.83 3.07-2.46 1.11-5.65 1.11z"/>
		<path class="s1" d="m1436.68 564.69q-4.08 0-7.05-1.94-2.97-1.95-4.6-5.38-1.62-3.44-1.62-7.91 0-4.47 1.6-7.93 1.6-3.47 4.47-5.45 2.87-1.98 6.66-1.98 2.39-0.01 4.6 0.89 2.21 0.88 3.97 2.7 1.76 1.82 2.78 4.59 1.02 2.78 1.01 6.53v1.56h-22.78v-3.09h20.88l-1.61 1.16q0-3.18-1.07-5.69-1.06-2.51-3.04-3.97-1.98-1.45-4.75-1.45-2.76 0-4.82 1.48-2.07 1.48-3.22 3.91-1.16 2.43-1.16 5.34v1.85q0 3.46 1.19 6.07 1.2 2.61 3.39 4.05 2.19 1.44 5.18 1.44 2.03 0 3.57-0.66 1.55-0.66 2.6-1.76 1.06-1.1 1.57-2.39l3.35 1.08q-0.67 1.85-2.17 3.44-1.5 1.59-3.75 2.55-2.27 0.96-5.18 0.96z"/>
	</g>
</svg>