<?xml version="1.0" encoding="utf-8"?>
<svg id="Layer_1" data-name="Layer 1" xmlns="http://www.w3.org/2000/svg" viewBox="0 0 1655 777" xmlns:bx="https://boxy-svg.com">
  <defs>
    <style>
      .cls-1 {
        fill: #0d3375;
      }

      .cls-2 {
        fill: #1469e2;
      }
    </style>
    <linearGradient id="color-0" bx:pinned="true" gradientUnits="userSpaceOnUse">
      <title>White</title>
      <stop style="stop-color: rgb(255, 255, 255);"/>
    </linearGradient>
  </defs>
  <g>
    <path class="cls-2" d="M777.87,311.96c-6.02-22.47-53.78-31.16-123.33-26.4-3.79.29-7.67.58-11.55.92-42.27-62.47-120.9-94.35-197.83-73.73-76.93,20.58-129.11,87.56-134.44,162.74-3.59,1.7-7.09,3.35-10.48,5.05-62.61,30.63-99.64,62.03-93.63,84.45,6.02,22.52,53.87,31.16,123.57,26.35,3.74-.24,7.47-.53,11.31-.87,42.23,62.47,120.9,94.4,197.88,73.77,76.93-20.63,129.06-87.56,134.44-162.84,3.45-1.6,6.89-3.25,10.19-4.85,62.76-30.67,99.89-62.13,93.87-84.6ZM255.19,451.99c-4.42-16.45,16.89-38.2,55.09-60.18.15,8.3.87,16.65,2.23,25.04.63,4.17,1.46,8.4,2.43,12.57.49,2.04.97,4.13,1.55,6.16.53,2.09,1.12,4.13,1.75,6.16,1.26,4.08,2.62,8.11,4.17,12.09,3.01,7.91,6.55,15.53,10.58,22.76-44.07.05-73.39-8.15-77.8-24.61ZM535.15,548.57c-67.08,17.96-135.51-7.86-175.02-59.94,18.69-2.14,38.54-5.05,59.21-8.78,28.01,22.28,65.91,31.5,103.14,21.5,37.28-9.95,65.47-36.89,78.53-70.18,19.85-7.13,38.49-14.51,55.72-22.04-8.15,64.89-54.55,121.49-121.58,139.44ZM657.89,394.04c-15.24,7.91-32.57,15.73-51.45,23.3-.34.15-.73.29-1.07.44-6.6,2.62-13.4,5.19-20.39,7.77-23.64,8.64-49.31,16.79-76.4,24.03-27.03,7.23-53.39,13.06-78.19,17.38-7.28,1.31-14.46,2.43-21.5,3.45-.39.1-.78.15-1.12.19-20.19,2.91-39.07,4.76-56.25,5.58-5.14-8.35-9.66-17.18-13.35-26.55-1.55-3.93-2.96-7.96-4.27-12.09-.58-2.04-1.21-4.08-1.75-6.12-.53-2.09-1.07-4.13-1.55-6.21-.92-4.17-1.7-8.4-2.33-12.57-1.5-9.95-2.04-19.9-1.7-29.7.1-3.25.29-6.46.58-9.61.19-1.84.39-3.69.63-5.48,8.15-64.84,54.51-121.44,121.53-139.4,67.03-17.96,135.51,7.86,175.02,59.89,1.07,1.5,2.18,2.96,3.25,4.47,1.84,2.62,3.59,5.29,5.29,8.01,5.19,8.35,9.71,17.23,13.4,26.6,1.55,3.93,3.01,7.96,4.27,12.09.63,2.04,1.21,4.08,1.75,6.12.58,2.09,1.07,4.13,1.55,6.21.92,4.17,1.75,8.4,2.33,12.57,1.5,9.95,2.04,19.85,1.7,29.66ZM674.2,385.15c-.15-8.3-.87-16.65-2.18-25-.68-4.17-1.5-8.4-2.48-12.57-.49-2.04-.97-4.13-1.55-6.16-.53-2.09-1.12-4.13-1.75-6.16-1.26-4.08-2.62-8.11-4.13-12.09-3.06-7.91-6.6-15.53-10.63-22.81,44.07-.05,73.39,8.15,77.8,24.61,4.42,16.45-16.89,38.2-55.09,60.18Z" style="fill: url(&quot;#color-0&quot;);"/>
    <path class="cls-2" d="M475.87,327.4c27.05-7.25,53.35-13.05,78.15-17.38,7.31-1.28,14.5-2.44,21.53-3.46-3.3-3.36-6.8-6.5-10.47-9.42-28.01-22.29-65.85-31.47-103.08-21.49-37.23,9.97-65.41,36.85-78.52,70.15-1.72,4.36-3.17,8.83-4.36,13.39,6.6-2.63,13.4-5.22,20.38-7.77,23.64-8.64,49.32-16.77,76.37-24.02Z" style="fill: url(&quot;#color-0&quot;);"/>
    <path class="cls-2" d="M605.1,358.26c-.55-2.07-1.16-4.11-1.82-6.12-1.34-4.11-2.89-8.1-4.64-11.96l-222.7,59.67c.41,4.22,1.07,8.45,1.96,12.68.44,2.07.93,4.14,1.48,6.21.55,2.07,1.16,4.1,1.82,6.11,1.34,4.11,2.89,8.1,4.64,11.96l222.7-59.67c-.41-4.22-1.07-8.45-1.96-12.68-.44-2.07-.93-4.14-1.48-6.2Z" style="fill: url(&quot;#color-0&quot;);"/>
  </g>
  <g>
    <path class="cls-1" d="M922.49,293.43v51.32h78.46v34.51h-78.46v51.32h92.91v34.51h-132.43v-206.17h132.43v34.51h-92.91Z" style="fill: url(&quot;#color-0&quot;);"/>
    <path class="cls-1" d="M1200.92,465.08h-47.78l-54.56-81.4c-2.07-2.95-3.24-6.49-3.24-9.73,0-8.55,6.19-15.93,14.16-17.4,25.07-5.01,37.75-22.42,37.75-37.46,0-13.86-8.55-25.66-25.07-25.66h-39.23v171.66h-39.52v-206.17h81.7c77.57.29,82.29,102.05,16.81,118.27l58.99,87.89Z" style="fill: url(&quot;#color-0&quot;);"/>
    <path class="cls-1" d="M1222.75,465.08v-206.17h39.52v206.17h-39.52Z" style="fill: url(&quot;#color-0&quot;);"/>
    <path class="cls-1" d="M1448.97,405.21c0,38.64-38.05,61.05-77.57,61.05-37.16,0-75.51-20.06-83.47-64.59h41.88c3.54,23.01,24.48,34.51,43.65,34.51s35.69-10.32,35.69-30.97c0-39.52-114.44-14.45-114.44-87.3,0-38.05,35.39-59.87,71.97-59.87,34.51,0,69.61,19.17,77.57,62.53h-42.18c-3.24-21.24-21.24-32.15-38.05-32.15-15.34,0-29.49,9.14-29.49,27.73,0,42.18,114.44,19.47,114.44,89.07Z" style="fill: url(&quot;#color-0&quot;);"/>
  </g>
  <g>
    <path class="cls-1" d="M894.29,564.06l-10.68-39.4h3.77l6.88,26.15c.31,1.18.61,2.38.9,3.6.29,1.22.56,2.45.83,3.69.27,1.24.52,2.51.77,3.79h-.47c.24-1.29.5-2.55.77-3.79.27-1.24.55-2.47.84-3.69.29-1.22.6-2.42.91-3.6l6.86-26.15h4.34l6.83,26.15c.31,1.18.61,2.38.91,3.6.29,1.22.58,2.45.86,3.69s.55,2.51.81,3.79h-.55c.26-1.29.52-2.55.79-3.79.27-1.24.55-2.47.86-3.69.3-1.22.6-2.42.9-3.6l6.86-26.15h3.82l-10.73,39.4h-4.44l-7.04-26.36c-.43-1.62-.85-3.34-1.26-5.16-.41-1.81-.8-3.83-1.18-6.06h.78c-.38,2.12-.77,4.06-1.16,5.84-.39,1.78-.82,3.57-1.29,5.37l-7.04,26.36h-4.44Z" style="fill: url(&quot;#color-0&quot;);"/>
    <path class="cls-1" d="M947.04,564.69c-2.72,0-5.07-.65-7.05-1.94-1.98-1.3-3.52-3.09-4.6-5.38s-1.62-4.93-1.62-7.91.53-5.62,1.6-7.93c1.07-2.31,2.55-4.13,4.47-5.45,1.91-1.32,4.13-1.98,6.66-1.98,1.59,0,3.13.29,4.6.89,1.47.59,2.8,1.49,3.97,2.7s2.1,2.74,2.78,4.59c.68,1.85,1.01,4.03,1.01,6.53v1.56h-22.78v-3.09h20.88l-1.61,1.16c0-2.12-.36-4.01-1.07-5.69-.71-1.67-1.72-3-3.04-3.97s-2.9-1.45-4.75-1.45-3.44.49-4.82,1.48c-1.38.99-2.45,2.29-3.22,3.91-.77,1.62-1.16,3.4-1.16,5.34v1.85c0,2.31.4,4.33,1.19,6.07.8,1.74,1.93,3.09,3.39,4.05,1.46.96,3.19,1.44,5.18,1.44,1.35,0,2.54-.22,3.57-.66,1.03-.44,1.9-1.03,2.6-1.76.7-.73,1.23-1.53,1.57-2.39l3.35,1.08c-.45,1.23-1.17,2.38-2.17,3.44-1,1.06-2.25,1.91-3.75,2.55-1.51.64-3.24.96-5.19.96Z" style="fill: url(&quot;#color-0&quot;);"/>
    <path class="cls-1" d="M996.22,564.67c-2.91,0-5.47-.6-7.69-1.81-2.22-1.21-3.94-2.87-5.18-4.98-1.24-2.12-1.86-4.51-1.86-7.19v-26.02h3.69v25.76c0,2.06.46,3.9,1.38,5.53.92,1.62,2.2,2.9,3.86,3.83,1.65.94,3.59,1.4,5.81,1.4s4.15-.47,5.81-1.4c1.65-.93,2.94-2.21,3.84-3.83.91-1.62,1.36-3.46,1.36-5.53v-25.76h3.69v26.02c0,2.68-.62,5.08-1.86,7.19-1.24,2.11-2.96,3.78-5.17,4.98-2.21,1.21-4.77,1.81-7.68,1.81Z" style="fill: url(&quot;#color-0&quot;);"/>
    <path class="cls-1" d="M1023.75,545.63v18.43h-3.53v-29.56h3.4l.03,6.9h-.55c.8-2.57,2.05-4.43,3.75-5.58,1.71-1.15,3.66-1.72,5.86-1.72,1.97,0,3.7.42,5.18,1.26s2.64,2.06,3.48,3.66c.84,1.61,1.26,3.58,1.26,5.92v19.12h-3.51v-18.85c0-2.42-.67-4.32-2-5.73-1.33-1.4-3.12-2.1-5.35-2.1-1.52,0-2.89.33-4.1.99-1.21.66-2.17,1.61-2.87,2.86-.7,1.24-1.05,2.71-1.05,4.4Z" style="fill: url(&quot;#color-0&quot;);"/>
    <path class="cls-1" d="M1053.31,529.03c-.69,0-1.3-.25-1.81-.74-.51-.49-.77-1.08-.77-1.77s.26-1.3.77-1.78c.51-.49,1.11-.73,1.81-.73s1.32.24,1.82.73c.5.48.75,1.08.75,1.78s-.25,1.28-.75,1.77c-.5.49-1.11.74-1.82.74ZM1051.52,564.06v-29.56h3.53v29.56h-3.53Z" style="fill: url(&quot;#color-0&quot;);"/>
    <path class="cls-1" d="M1073.75,534.5v3.12h-13.82v-3.12h13.82ZM1064.24,527.46h3.53v29.62c0,1.46.32,2.54.96,3.23.64.69,1.62.96,2.94.82.24,0,.54-.03.9-.09.36-.06.69-.13,1-.2l.73,3.09c-.38.12-.8.22-1.26.29-.46.07-.92.11-1.39.13-2.32.16-4.13-.4-5.44-1.68-1.31-1.28-1.96-3.06-1.96-5.35v-29.85Z" style="fill: url(&quot;#color-0&quot;);"/>
    <path class="cls-1" d="M1091.13,564.69c-2.72,0-5.07-.65-7.05-1.94-1.98-1.3-3.52-3.09-4.6-5.38s-1.62-4.93-1.62-7.91.53-5.62,1.6-7.93c1.07-2.31,2.55-4.13,4.47-5.45,1.91-1.32,4.13-1.98,6.66-1.98,1.59,0,3.13.29,4.6.89,1.47.59,2.8,1.49,3.97,2.7s2.1,2.74,2.78,4.59c.68,1.85,1.01,4.03,1.01,6.53v1.56h-22.78v-3.09h20.88l-1.61,1.16c0-2.12-.36-4.01-1.07-5.69-.71-1.67-1.72-3-3.04-3.97-1.32-.97-2.9-1.45-4.75-1.45s-3.44.49-4.82,1.48c-1.38.99-2.45,2.29-3.22,3.91-.77,1.62-1.16,3.4-1.16,5.34v1.85c0,2.31.4,4.33,1.19,6.07.8,1.74,1.93,3.09,3.39,4.05,1.46.96,3.19,1.44,5.18,1.44,1.35,0,2.54-.22,3.57-.66,1.03-.44,1.9-1.03,2.6-1.76.7-.73,1.23-1.53,1.57-2.39l3.35,1.08c-.45,1.23-1.17,2.38-2.17,3.44-1,1.06-2.25,1.91-3.75,2.55-1.51.64-3.24.96-5.19.96Z" style="fill: url(&quot;#color-0&quot;);"/>
    <path class="cls-1" d="M1123.52,528.02v-3.36h28.21v3.36h-12.23v36.04h-3.69v-36.04h-12.29Z" style="fill: url(&quot;#color-0&quot;);"/>
    <path class="cls-1" d="M1162.51,545.63v18.43h-3.53v-39.4h3.53v16.74h-.65c.8-2.57,2.05-4.43,3.75-5.58,1.71-1.15,3.66-1.72,5.86-1.72,1.97,0,3.7.42,5.19,1.26,1.49.84,2.65,2.06,3.49,3.66.84,1.61,1.26,3.58,1.26,5.92v19.12h-3.53v-18.85c0-2.42-.67-4.32-2-5.73-1.33-1.4-3.12-2.1-5.35-2.1-1.52,0-2.89.33-4.1.99-1.21.66-2.17,1.61-2.87,2.86-.7,1.24-1.05,2.71-1.05,4.4Z" style="fill: url(&quot;#color-0&quot;);"/>
    <path class="cls-1" d="M1202.07,564.69c-2.72,0-5.07-.65-7.05-1.94s-3.52-3.09-4.6-5.38c-1.08-2.29-1.62-4.93-1.62-7.91s.53-5.62,1.6-7.93c1.07-2.31,2.55-4.13,4.47-5.45,1.91-1.32,4.13-1.98,6.66-1.98,1.59,0,3.13.29,4.6.89,1.47.59,2.8,1.49,3.98,2.7,1.18,1.21,2.1,2.74,2.78,4.59.68,1.85,1.01,4.03,1.01,6.53v1.56h-22.78v-3.09h20.88l-1.61,1.16c0-2.12-.36-4.01-1.07-5.69-.71-1.67-1.72-3-3.04-3.97-1.32-.97-2.9-1.45-4.75-1.45s-3.44.49-4.82,1.48c-1.38.99-2.45,2.29-3.22,3.91-.77,1.62-1.16,3.4-1.16,5.34v1.85c0,2.31.4,4.33,1.2,6.07.8,1.74,1.93,3.09,3.39,4.05,1.46.96,3.19,1.44,5.18,1.44,1.35,0,2.54-.22,3.57-.66,1.03-.44,1.9-1.03,2.6-1.76.7-.73,1.22-1.53,1.57-2.39l3.35,1.08c-.45,1.23-1.17,2.38-2.17,3.44-1,1.06-2.25,1.91-3.75,2.55-1.51.64-3.24.96-5.19.96Z" style="fill: url(&quot;#color-0&quot;);"/>
    <path class="cls-1" d="M1251.24,564.67c-2.91,0-5.47-.6-7.69-1.81s-3.94-2.87-5.18-4.98c-1.24-2.12-1.86-4.51-1.86-7.19v-26.02h3.69v25.76c0,2.06.46,3.9,1.38,5.53.92,1.62,2.2,2.9,3.86,3.83,1.65.94,3.59,1.4,5.81,1.4s4.15-.47,5.81-1.4c1.65-.93,2.94-2.21,3.84-3.83.91-1.62,1.36-3.46,1.36-5.53v-25.76h3.69v26.02c0,2.68-.62,5.08-1.86,7.19-1.24,2.11-2.96,3.78-5.17,4.98s-4.77,1.81-7.68,1.81Z" style="fill: url(&quot;#color-0&quot;);"/>
    <path class="cls-1" d="M1278.78,545.63v18.43h-3.53v-29.56h3.4l.03,6.9h-.54c.8-2.57,2.05-4.43,3.75-5.58,1.71-1.15,3.66-1.72,5.86-1.72,1.97,0,3.7.42,5.18,1.26,1.48.84,2.64,2.06,3.48,3.66.84,1.61,1.26,3.58,1.26,5.92v19.12h-3.51v-18.85c0-2.42-.67-4.32-2-5.73-1.33-1.4-3.12-2.1-5.35-2.1-1.52,0-2.89.33-4.1.99-1.21.66-2.17,1.61-2.87,2.86s-1.05,2.71-1.05,4.4Z" style="fill: url(&quot;#color-0&quot;);"/>
    <path class="cls-1" d="M1308.34,529.03c-.69,0-1.3-.25-1.81-.74-.51-.49-.77-1.08-.77-1.77s.26-1.3.77-1.78c.51-.49,1.11-.73,1.81-.73s1.32.24,1.82.73c.5.48.75,1.08.75,1.78s-.25,1.28-.75,1.77c-.5.49-1.11.74-1.82.74ZM1306.54,564.06v-29.56h3.53v29.56h-3.53Z" style="fill: url(&quot;#color-0&quot;);"/>
    <path class="cls-1" d="M1327.4,564.06l-11.09-29.56h3.84l6.7,18.59c.61,1.66,1.14,3.31,1.61,4.97.47,1.66.96,3.27,1.48,4.84h-1.25c.5-1.57.99-3.18,1.46-4.84.47-1.66,1-3.31,1.61-4.97l6.7-18.59h3.82l-11.09,29.56h-3.79Z" style="fill: url(&quot;#color-0&quot;);"/>
    <path class="cls-1" d="M1359.27,564.69c-2.72,0-5.07-.65-7.05-1.94s-3.52-3.09-4.6-5.38c-1.08-2.29-1.62-4.93-1.62-7.91s.53-5.62,1.6-7.93c1.07-2.31,2.55-4.13,4.47-5.45,1.91-1.32,4.13-1.98,6.66-1.98,1.59,0,3.13.29,4.6.89,1.47.59,2.8,1.49,3.98,2.7,1.18,1.21,2.1,2.74,2.78,4.59.68,1.85,1.01,4.03,1.01,6.53v1.56h-22.78v-3.09h20.88l-1.61,1.16c0-2.12-.36-4.01-1.07-5.69-.71-1.67-1.72-3-3.04-3.97-1.32-.97-2.9-1.45-4.75-1.45s-3.44.49-4.82,1.48c-1.38.99-2.45,2.29-3.22,3.91-.77,1.62-1.16,3.4-1.16,5.34v1.85c0,2.31.4,4.33,1.2,6.07.8,1.74,1.93,3.09,3.39,4.05,1.46.96,3.19,1.44,5.18,1.44,1.35,0,2.54-.22,3.57-.66,1.03-.44,1.9-1.03,2.6-1.76.7-.73,1.22-1.53,1.57-2.39l3.35,1.08c-.45,1.23-1.17,2.38-2.17,3.44-1,1.06-2.25,1.91-3.75,2.55-1.51.64-3.24.96-5.19.96Z" style="fill: url(&quot;#color-0&quot;);"/>
    <path class="cls-1" d="M1378.34,564.06v-29.56h3.43v4.6h.26c.59-1.52,1.6-2.73,3.03-3.64,1.43-.91,3.05-1.36,4.87-1.36.29,0,.61,0,.94.01.33,0,.61.02.86.04v3.6c-.12-.04-.38-.07-.78-.12s-.83-.07-1.3-.07c-1.49,0-2.82.33-4,.98-1.18.65-2.1,1.54-2.77,2.67-.67,1.13-1,2.42-1,3.89v18.96h-3.53Z" style="fill: url(&quot;#color-0&quot;);"/>
    <path class="cls-1" d="M1406.7,564.69c-1.9,0-3.59-.3-5.06-.89-1.47-.59-2.68-1.45-3.64-2.59-.95-1.14-1.6-2.53-1.95-4.19l3.38-.82c.42,1.78,1.24,3.11,2.48,3.98s2.82,1.31,4.74,1.31c2.2,0,3.96-.5,5.29-1.51,1.32-1,1.99-2.26,1.99-3.75,0-1.2-.39-2.2-1.18-2.99-.79-.79-1.97-1.38-3.55-1.77l-4.73-1.16c-2.49-.62-4.36-1.58-5.6-2.9-1.24-1.31-1.86-2.97-1.86-4.96,0-1.66.44-3.11,1.31-4.36.87-1.25,2.08-2.23,3.61-2.94,1.53-.7,3.28-1.06,5.23-1.06,1.83,0,3.41.29,4.73.86s2.4,1.38,3.26,2.42c.86,1.04,1.5,2.27,1.94,3.7l-3.22.85c-.45-1.36-1.2-2.48-2.25-3.37s-2.52-1.34-4.43-1.34-3.51.47-4.75,1.4c-1.25.93-1.87,2.14-1.87,3.62,0,1.25.42,2.27,1.26,3.07.84.79,2.15,1.41,3.93,1.85l4.44,1.08c2.46.62,4.3,1.58,5.52,2.88,1.22,1.31,1.83,2.94,1.83,4.89,0,1.69-.46,3.19-1.38,4.5-.92,1.3-2.19,2.33-3.83,3.07-1.64.74-3.52,1.11-5.65,1.11Z" style="fill: url(&quot;#color-0&quot;);"/>
    <path class="cls-1" d="M1436.68,564.69c-2.72,0-5.07-.65-7.05-1.94-1.98-1.3-3.52-3.09-4.6-5.38s-1.62-4.93-1.62-7.91.53-5.62,1.6-7.93c1.07-2.31,2.55-4.13,4.47-5.45,1.91-1.32,4.13-1.98,6.66-1.98,1.59,0,3.13.29,4.6.89,1.47.59,2.8,1.49,3.97,2.7s2.1,2.74,2.78,4.59c.68,1.85,1.01,4.03,1.01,6.53v1.56h-22.78v-3.09h20.88l-1.61,1.16c0-2.12-.36-4.01-1.07-5.69-.71-1.67-1.72-3-3.04-3.97s-2.9-1.45-4.75-1.45-3.44.49-4.82,1.48c-1.38.99-2.45,2.29-3.22,3.91-.77,1.62-1.16,3.4-1.16,5.34v1.85c0,2.31.4,4.33,1.19,6.07.8,1.74,1.93,3.09,3.39,4.05,1.46.96,3.19,1.44,5.18,1.44,1.35,0,2.54-.22,3.57-.66,1.03-.44,1.9-1.03,2.6-1.76.7-.73,1.23-1.53,1.57-2.39l3.35,1.08c-.45,1.23-1.17,2.38-2.17,3.44-1,1.06-2.25,1.91-3.75,2.55-1.51.64-3.24.96-5.19.96Z" style="fill: url(&quot;#color-0&quot;);"/>
  </g>
</svg>